<svg width="41" height="13" viewBox="0 0 41 13" fill="none" xmlns="http://www.w3.org/2000/svg">
<path d="M2.584 10.084C2.42533 10.084 2.23867 10.0747 2.024 10.056C1.81867 10.0467 1.604 10.028 1.38 10C1.16533 9.98133 0.96 9.958 0.764 9.93C0.568 9.89267 0.4 9.85533 0.26 9.818V0.48C0.428 0.433333 0.614667 0.395999 0.82 0.368C1.02533 0.330666 1.23533 0.302666 1.45 0.284C1.674 0.256 1.88867 0.237333 2.094 0.228C2.30867 0.218666 2.50467 0.213999 2.682 0.213999C3.20467 0.213999 3.69933 0.255999 4.166 0.339999C4.642 0.423999 5.05733 0.563999 5.412 0.76C5.76667 0.955999 6.04667 1.21733 6.252 1.544C6.46667 1.86133 6.574 2.258 6.574 2.734C6.574 3.25667 6.43867 3.70467 6.168 4.078C5.90667 4.442 5.552 4.694 5.104 4.834C5.384 4.89933 5.64067 4.99267 5.874 5.114C6.10733 5.23533 6.31267 5.394 6.49 5.59C6.66733 5.77667 6.80267 6.01 6.896 6.29C6.99867 6.56067 7.05 6.88733 7.05 7.27C7.05 8.18467 6.686 8.88467 5.958 9.37C5.23 9.846 4.10533 10.084 2.584 10.084ZM1.212 5.352V9.174C1.352 9.19267 1.562 9.216 1.842 9.244C2.122 9.26267 2.40667 9.272 2.696 9.272C3.12533 9.272 3.54067 9.244 3.942 9.188C4.35267 9.132 4.712 9.02933 5.02 8.88C5.328 8.73067 5.57533 8.52533 5.762 8.264C5.94867 8.00267 6.042 7.66667 6.042 7.256C6.042 6.88267 5.97667 6.57467 5.846 6.332C5.71533 6.08 5.52867 5.884 5.286 5.744C5.04333 5.59467 4.74467 5.492 4.39 5.436C4.04467 5.38 3.65733 5.352 3.228 5.352H1.212ZM1.212 4.54H3.06C3.40533 4.54 3.732 4.51667 4.04 4.47C4.348 4.414 4.614 4.32067 4.838 4.19C5.07133 4.05 5.25333 3.868 5.384 3.644C5.51467 3.41067 5.58 3.11667 5.58 2.762C5.58 2.44467 5.51 2.17867 5.37 1.964C5.23 1.74 5.02933 1.558 4.768 1.418C4.516 1.278 4.21267 1.18 3.858 1.124C3.50333 1.05867 3.11133 1.026 2.682 1.026C2.33667 1.026 2.04267 1.03533 1.8 1.054C1.56667 1.07267 1.37067 1.096 1.212 1.124V4.54ZM9.02236 2.762H9.93236V5.66C10.1004 5.61333 10.3477 5.56667 10.6744 5.52C11.001 5.464 11.3277 5.436 11.6544 5.436C12.0184 5.436 12.3684 5.478 12.7044 5.562C13.0497 5.646 13.3484 5.78133 13.6004 5.968C13.8617 6.15467 14.067 6.39733 14.2164 6.696C14.375 6.99467 14.4544 7.35867 14.4544 7.788C14.4544 8.21733 14.375 8.58133 14.2164 8.88C14.067 9.17867 13.8617 9.426 13.6004 9.622C13.339 9.80867 13.0264 9.944 12.6624 10.028C12.3077 10.112 11.9297 10.154 11.5284 10.154C11.2857 10.154 11.0384 10.1447 10.7864 10.126C10.5437 10.1073 10.3104 10.084 10.0864 10.056C9.87169 10.028 9.67103 9.99533 9.48436 9.958C9.29769 9.92067 9.14369 9.87867 9.02236 9.832V2.762ZM11.5284 9.342C12.1164 9.342 12.5924 9.22067 12.9564 8.978C13.3297 8.73533 13.5164 8.33867 13.5164 7.788C13.5164 7.52667 13.465 7.298 13.3624 7.102C13.2597 6.906 13.1197 6.74733 12.9424 6.626C12.7744 6.49533 12.5737 6.402 12.3404 6.346C12.1164 6.28067 11.8784 6.248 11.6264 6.248C11.337 6.248 11.043 6.262 10.7444 6.29C10.4457 6.318 10.175 6.374 9.93236 6.458V9.202C10.0537 9.23 10.2637 9.26267 10.5624 9.3C10.861 9.328 11.183 9.342 11.5284 9.342ZM16.8904 10H15.9804V2.762H16.8904V10ZM21.5716 6.724C21.3663 6.99467 21.1609 7.27933 20.9556 7.578C20.7503 7.87667 20.5496 8.17067 20.3536 8.46C20.1669 8.74933 19.9943 9.02933 19.8356 9.3C19.6769 9.56133 19.5416 9.79467 19.4296 10H18.4916C18.8743 9.28133 19.2756 8.614 19.6956 7.998C20.1156 7.37267 20.5449 6.76133 20.9836 6.164L18.6316 2.762H19.6956L21.5716 5.534L23.4756 2.762H24.4696L22.1596 6.108C22.3556 6.36933 22.5656 6.654 22.7896 6.962C23.0136 7.27 23.2376 7.592 23.4616 7.928C23.6856 8.25467 23.9003 8.59533 24.1056 8.95C24.3203 9.30467 24.5163 9.65467 24.6936 10H23.7136C23.6016 9.79467 23.4663 9.56133 23.3076 9.3C23.1489 9.02933 22.9716 8.74933 22.7756 8.46C22.5889 8.17067 22.3883 7.87667 22.1736 7.578C21.9683 7.27933 21.7676 6.99467 21.5716 6.724ZM32.3272 6.388C32.3272 6.95733 32.2432 7.47533 32.0752 7.942C31.9166 8.40867 31.6879 8.80533 31.3892 9.132C31.0999 9.45867 30.7546 9.71533 30.3532 9.902C29.9519 10.0793 29.5086 10.168 29.0232 10.168C28.5379 10.168 28.0946 10.0793 27.6932 9.902C27.2919 9.71533 26.9419 9.45867 26.6432 9.132C26.3539 8.80533 26.1252 8.40867 25.9572 7.942C25.7986 7.47533 25.7192 6.95733 25.7192 6.388C25.7192 5.81867 25.7986 5.30067 25.9572 4.834C26.1252 4.36733 26.3539 3.97067 26.6432 3.644C26.9419 3.308 27.2919 3.05133 27.6932 2.874C28.0946 2.68733 28.5379 2.594 29.0232 2.594C29.5086 2.594 29.9519 2.68733 30.3532 2.874C30.7546 3.05133 31.0999 3.308 31.3892 3.644C31.6879 3.97067 31.9166 4.36733 32.0752 4.834C32.2432 5.30067 32.3272 5.81867 32.3272 6.388ZM31.3612 6.388C31.3612 5.48267 31.1512 4.764 30.7312 4.232C30.3112 3.69067 29.7419 3.42 29.0232 3.42C28.3046 3.42 27.7352 3.69067 27.3152 4.232C26.8952 4.764 26.6852 5.48267 26.6852 6.388C26.6852 7.29333 26.8952 8.012 27.3152 8.544C27.7352 9.076 28.3046 9.342 29.0232 9.342C29.7419 9.342 30.3112 9.076 30.7312 8.544C31.1512 8.012 31.3612 7.29333 31.3612 6.388ZM39.8737 9.23H40.6997V12.002H39.8177V10H34.1897V12.002H33.3077V9.23H34.0497C34.3577 8.74467 34.6003 8.278 34.7777 7.83C34.9643 7.382 35.1043 6.92467 35.1977 6.458C35.3003 5.99133 35.3657 5.50133 35.3937 4.988C35.431 4.46533 35.4497 3.896 35.4497 3.28V2.762H39.8737V9.23ZM36.3037 3.532C36.3037 4.036 36.285 4.53067 36.2477 5.016C36.2197 5.50133 36.159 5.982 36.0657 6.458C35.9723 6.934 35.8417 7.40533 35.6737 7.872C35.5057 8.32933 35.2863 8.782 35.0157 9.23H38.9637V3.532H36.3037Z" fill="white"/>
</svg>
