<svg width="29" height="19" viewBox="0 0 29 19" fill="none" xmlns="http://www.w3.org/2000/svg">
<path d="M18.2018 13.2062C17.9718 13.4384 17.9718 13.8142 18.2018 14.0457C18.4318 14.2779 18.8041 14.2779 19.0335 14.0457L23.0918 9.94889C23.2142 9.82536 23.2665 9.66091 23.2582 9.49938C23.2665 9.33729 23.2141 9.17343 23.0918 9.04993L19.0335 4.95366C18.8041 4.7215 18.4312 4.7215 18.2018 4.95366C17.9718 5.18582 17.9718 5.56166 18.2018 5.7932L21.2859 8.90622H0.588236C0.26353 8.90625 0 9.17225 0 9.5C0 9.82775 0.26353 10.0938 0.588236 10.0938H21.2859L18.2018 13.2062ZM26.6471 0H13.7059C12.4065 0 11.3529 1.06341 11.3529 2.375V4.75H12.5294V2.375C12.5294 1.7195 13.0559 1.1875 13.7059 1.1875H26.6471C27.2971 1.1875 27.8235 1.7195 27.8235 2.375V16.625C27.8235 17.2805 27.2971 17.8125 26.6471 17.8125H13.7059C13.0559 17.8125 12.5294 17.2811 12.5294 16.625V13.0625H11.3529V16.625C11.3529 17.9366 12.4065 19 13.7059 19H26.6471C27.9465 19 29 17.9366 29 16.625V2.375C29 1.06341 27.9465 0 26.6471 0Z" fill="white"/>
</svg>
