<svg width="82" height="19" viewBox="0 0 82 19" fill="none" xmlns="http://www.w3.org/2000/svg">
<path d="M18.2018 13.2062C17.9718 13.4384 17.9718 13.8142 18.2018 14.0457C18.4318 14.2779 18.8041 14.2779 19.0335 14.0457L23.0918 9.94889C23.2141 9.82536 23.2665 9.66091 23.2582 9.49938C23.2665 9.33729 23.2141 9.17343 23.0918 9.04993L19.0335 4.95366C18.8041 4.7215 18.4312 4.7215 18.2018 4.95366C17.9718 5.18582 17.9718 5.56166 18.2018 5.7932L21.2859 8.90622H0.588236C0.26353 8.90625 0 9.17225 0 9.5C0 9.82775 0.26353 10.0938 0.588236 10.0938H21.2859L18.2018 13.2062ZM26.6471 0H13.7059C12.4065 0 11.3529 1.06341 11.3529 2.375V4.75H12.5294V2.375C12.5294 1.7195 13.0559 1.1875 13.7059 1.1875H26.6471C27.2971 1.1875 27.8235 1.7195 27.8235 2.375V16.625C27.8235 17.2805 27.2971 17.8125 26.6471 17.8125H13.7059C13.0559 17.8125 12.5294 17.2811 12.5294 16.625V13.0625H11.3529V16.625C11.3529 17.9366 12.4065 19 13.7059 19H26.6471C27.9465 19 29 17.9366 29 16.625V2.375C29 1.06341 27.9465 0 26.6471 0Z" fill="white"/>
<path d="M42.584 14.084C42.4253 14.084 42.2387 14.0747 42.024 14.056C41.8187 14.0467 41.604 14.028 41.38 14C41.1653 13.9813 40.96 13.958 40.764 13.93C40.568 13.8927 40.4 13.8553 40.26 13.818V4.48C40.428 4.43333 40.6147 4.396 40.82 4.368C41.0253 4.33067 41.2353 4.30267 41.45 4.284C41.674 4.256 41.8887 4.23733 42.094 4.228C42.3087 4.21867 42.5047 4.214 42.682 4.214C43.2047 4.214 43.6993 4.256 44.166 4.34C44.642 4.424 45.0573 4.564 45.412 4.76C45.7667 4.956 46.0467 5.21733 46.252 5.544C46.4667 5.86133 46.574 6.258 46.574 6.734C46.574 7.25667 46.4387 7.70467 46.168 8.078C45.9067 8.442 45.552 8.694 45.104 8.834C45.384 8.89933 45.6407 8.99267 45.874 9.114C46.1073 9.23533 46.3127 9.394 46.49 9.59C46.6673 9.77667 46.8027 10.01 46.896 10.29C46.9987 10.5607 47.05 10.8873 47.05 11.27C47.05 12.1847 46.686 12.8847 45.958 13.37C45.23 13.846 44.1053 14.084 42.584 14.084ZM41.212 9.352V13.174C41.352 13.1927 41.562 13.216 41.842 13.244C42.122 13.2627 42.4067 13.272 42.696 13.272C43.1253 13.272 43.5407 13.244 43.942 13.188C44.3527 13.132 44.712 13.0293 45.02 12.88C45.328 12.7307 45.5753 12.5253 45.762 12.264C45.9487 12.0027 46.042 11.6667 46.042 11.256C46.042 10.8827 45.9767 10.5747 45.846 10.332C45.7153 10.08 45.5287 9.884 45.286 9.744C45.0433 9.59467 44.7447 9.492 44.39 9.436C44.0447 9.38 43.6573 9.352 43.228 9.352H41.212ZM41.212 8.54H43.06C43.4053 8.54 43.732 8.51667 44.04 8.47C44.348 8.414 44.614 8.32067 44.838 8.19C45.0713 8.05 45.2533 7.868 45.384 7.644C45.5147 7.41067 45.58 7.11667 45.58 6.762C45.58 6.44467 45.51 6.17867 45.37 5.964C45.23 5.74 45.0293 5.558 44.768 5.418C44.516 5.278 44.2127 5.18 43.858 5.124C43.5033 5.05867 43.1113 5.026 42.682 5.026C42.3367 5.026 42.0427 5.03533 41.8 5.054C41.5667 5.07267 41.3707 5.096 41.212 5.124V8.54ZM49.0224 6.762H49.9324V9.66C50.1004 9.61333 50.3477 9.56667 50.6744 9.52C51.001 9.464 51.3277 9.436 51.6544 9.436C52.0184 9.436 52.3684 9.478 52.7044 9.562C53.0497 9.646 53.3484 9.78133 53.6004 9.968C53.8617 10.1547 54.067 10.3973 54.2164 10.696C54.375 10.9947 54.4544 11.3587 54.4544 11.788C54.4544 12.2173 54.375 12.5813 54.2164 12.88C54.067 13.1787 53.8617 13.426 53.6004 13.622C53.339 13.8087 53.0264 13.944 52.6624 14.028C52.3077 14.112 51.9297 14.154 51.5284 14.154C51.2857 14.154 51.0384 14.1447 50.7864 14.126C50.5437 14.1073 50.3104 14.084 50.0864 14.056C49.8717 14.028 49.671 13.9953 49.4844 13.958C49.2977 13.9207 49.1437 13.8787 49.0224 13.832V6.762ZM51.5284 13.342C52.1164 13.342 52.5924 13.2207 52.9564 12.978C53.3297 12.7353 53.5164 12.3387 53.5164 11.788C53.5164 11.5267 53.465 11.298 53.3624 11.102C53.2597 10.906 53.1197 10.7473 52.9424 10.626C52.7744 10.4953 52.5737 10.402 52.3404 10.346C52.1164 10.2807 51.8784 10.248 51.6264 10.248C51.337 10.248 51.043 10.262 50.7444 10.29C50.4457 10.318 50.175 10.374 49.9324 10.458V13.202C50.0537 13.23 50.2637 13.2627 50.5624 13.3C50.861 13.328 51.183 13.342 51.5284 13.342ZM56.8904 14H55.9804V6.762H56.8904V14ZM61.5716 10.724C61.3663 10.9947 61.1609 11.2793 60.9556 11.578C60.7503 11.8767 60.5496 12.1707 60.3536 12.46C60.1669 12.7493 59.9943 13.0293 59.8356 13.3C59.6769 13.5613 59.5416 13.7947 59.4296 14H58.4916C58.8743 13.2813 59.2756 12.614 59.6956 11.998C60.1156 11.3727 60.5449 10.7613 60.9836 10.164L58.6316 6.762H59.6956L61.5716 9.534L63.4756 6.762H64.4696L62.1596 10.108C62.3556 10.3693 62.5656 10.654 62.7896 10.962C63.0136 11.27 63.2376 11.592 63.4616 11.928C63.6856 12.2547 63.9003 12.5953 64.1056 12.95C64.3203 13.3047 64.5163 13.6547 64.6936 14H63.7136C63.6016 13.7947 63.4663 13.5613 63.3076 13.3C63.1489 13.0293 62.9716 12.7493 62.7756 12.46C62.5889 12.1707 62.3883 11.8767 62.1736 11.578C61.9683 11.2793 61.7676 10.9947 61.5716 10.724ZM72.3272 10.388C72.3272 10.9573 72.2432 11.4753 72.0752 11.942C71.9166 12.4087 71.6879 12.8053 71.3892 13.132C71.0999 13.4587 70.7546 13.7153 70.3532 13.902C69.9519 14.0793 69.5086 14.168 69.0232 14.168C68.5379 14.168 68.0946 14.0793 67.6932 13.902C67.2919 13.7153 66.9419 13.4587 66.6432 13.132C66.3539 12.8053 66.1252 12.4087 65.9572 11.942C65.7986 11.4753 65.7192 10.9573 65.7192 10.388C65.7192 9.81867 65.7986 9.30067 65.9572 8.834C66.1252 8.36733 66.3539 7.97067 66.6432 7.644C66.9419 7.308 67.2919 7.05133 67.6932 6.874C68.0946 6.68733 68.5379 6.594 69.0232 6.594C69.5086 6.594 69.9519 6.68733 70.3532 6.874C70.7546 7.05133 71.0999 7.308 71.3892 7.644C71.6879 7.97067 71.9166 8.36733 72.0752 8.834C72.2432 9.30067 72.3272 9.81867 72.3272 10.388ZM71.3612 10.388C71.3612 9.48267 71.1512 8.764 70.7312 8.232C70.3112 7.69067 69.7419 7.42 69.0232 7.42C68.3046 7.42 67.7352 7.69067 67.3152 8.232C66.8952 8.764 66.6852 9.48267 66.6852 10.388C66.6852 11.2933 66.8952 12.012 67.3152 12.544C67.7352 13.076 68.3046 13.342 69.0232 13.342C69.7419 13.342 70.3112 13.076 70.7312 12.544C71.1512 12.012 71.3612 11.2933 71.3612 10.388ZM79.8737 13.23H80.6997V16.002H79.8177V14H74.1897V16.002H73.3077V13.23H74.0497C74.3577 12.7447 74.6003 12.278 74.7777 11.83C74.9643 11.382 75.1043 10.9247 75.1977 10.458C75.3003 9.99133 75.3657 9.50133 75.3937 8.988C75.431 8.46533 75.4497 7.896 75.4497 7.28V6.762H79.8737V13.23ZM76.3037 7.532C76.3037 8.036 76.285 8.53067 76.2477 9.016C76.2197 9.50133 76.159 9.982 76.0657 10.458C75.9723 10.934 75.8417 11.4053 75.6737 11.872C75.5057 12.3293 75.2863 12.782 75.0157 13.23H78.9637V7.532H76.3037Z" fill="white"/>
</svg>
