<svg width="74" height="86" viewBox="0 0 55 64" fill="none" xmlns="http://www.w3.org/2000/svg">
<path d="M45.2832 0C45.7332 0 46.1999 0 46.6499 0C48.1166 0.516667 49.1166 1.58333 49.6999 2.95C50.4499 4.71667 51.1332 6.53333 51.6332 8.38333C52.5832 11.9 53.0499 15.5167 53.4166 19.1333C53.7332 22.2333 53.9999 25.35 54.2999 28.45C54.4999 30.5833 54.7332 32.7167 54.8666 34.85C54.9666 36.25 55.0666 37.6833 54.9332 39.0833C54.6999 41.45 53.7166 43.6 52.5499 45.65C50.0999 49.9167 46.8332 53.4667 43.0832 56.6C39.8332 59.3 36.3332 61.6167 32.3332 63.05C31.1832 63.45 29.9832 63.6833 28.7999 64C28.1332 64 27.4666 64 26.7999 64C26.6999 63.9667 26.6166 63.9 26.5166 63.8833C25.2166 63.55 23.8832 63.3 22.6166 62.85C18.0999 61.25 14.1832 58.65 10.6332 55.4833C6.96656 52.2 3.89989 48.45 1.88323 43.9333C0.366561 40.5667 -0.333439 37.0667 0.199895 33.3667C0.333228 32.5 0.583228 31.6667 0.683228 30.8C1.13323 26.3167 1.49989 21.8167 1.96656 17.3167C2.34989 13.65 2.94989 10.0333 3.98323 6.48333C4.48323 4.78333 5.08323 3.13333 6.14989 1.68333C6.93323 0.55 7.99989 -0.1 9.43323 0.15C10.1499 0.283333 10.8832 0.533333 11.5332 0.85C12.9166 1.55 14.0166 2.65 14.8832 3.88333C16.3999 6.06667 17.8166 8.31667 19.2499 10.5667C19.4832 10.9333 19.7166 11.1167 20.1332 11.1C20.8332 11.0667 21.5499 11.0667 22.2499 11.0167C23.9666 10.8833 25.6832 10.7 27.4166 10.6167C30.0999 10.5 32.7832 10.65 35.4332 11.3667C35.5666 11.1333 35.6832 10.9167 35.8166 10.7C36.9666 8.9 38.0499 7.03333 39.2832 5.3C40.8499 3.1 42.5666 0.966667 45.2832 0ZM6.94989 31.6833C6.13323 32.3833 5.61656 33.1667 5.26656 34.0667C4.59989 35.8 4.6499 37.5833 5.11656 39.35C6.21656 43.5833 8.09989 47.5 10.1999 51.3C10.3332 51.55 10.5499 51.7667 10.7499 51.9667C13.7332 54.7833 16.9499 57.2667 20.5332 59.25C22.7999 60.5 25.1499 61.4333 27.7999 61.35C29.8999 61.2833 31.8499 60.6833 33.7166 59.7667C37.3666 57.9833 40.4332 55.4167 43.4499 52.7333C44.5666 51.75 45.4332 50.6 46.0166 49.25C47.1999 46.5333 48.3999 43.8 49.5166 41.05C50.1999 39.3333 50.5832 37.55 50.2499 35.6833C49.9832 34.1667 49.2666 32.9 48.1166 31.8333C48.0166 32 47.9332 32.1 47.8832 32.2C44.8666 37.2333 38.3166 38.8333 33.2999 35.7667C31.4332 34.6333 30.0832 33.0333 29.0832 31.1C28.9832 30.9167 28.7666 30.6833 28.5832 30.6667C27.9499 30.6167 27.2999 30.6833 26.6499 30.6667C26.2832 30.65 26.1166 30.7833 25.9499 31.1167C23.6166 36.1333 17.0666 38.6333 11.8999 36.5C9.66656 35.6 8.04989 33.95 6.94989 31.6833ZM43.6166 17.6833C44.1832 17.7167 44.6166 17.65 44.9832 17.7833C45.3666 17.9 45.7499 18.15 46.0332 18.4333C46.9166 19.3333 47.7666 20.2667 48.6166 21.2167C48.9166 21.55 49.1666 21.95 49.4499 22.3167C49.4166 20.9 49.3332 19.5333 49.1666 18.1667C48.7999 15.2333 48.4832 12.3 47.9999 9.4C47.7999 8.2 47.2999 7.01667 46.7499 5.91667C46.2832 4.98333 45.4332 4.86667 44.5832 5.48333C44.0166 5.9 43.4499 6.36667 43.0832 6.95C41.8666 8.85 40.7166 10.8 39.5666 12.75C39.4832 12.8833 39.5832 13.2 39.6999 13.35C40.0832 13.8333 40.5832 14.25 40.3499 14.9833C40.3166 15.0667 40.4332 15.2333 40.5332 15.3167C41.6166 16.15 42.6999 16.9833 43.6166 17.6833ZM14.8832 15.05C14.6166 14.4 14.8166 13.8333 15.3499 13.4C15.7332 13.0833 15.6832 12.8333 15.4832 12.45C14.9832 11.5667 14.5666 10.6167 13.9999 9.78333C13.0499 8.41667 12.1332 7.03333 10.9999 5.81667C9.89989 4.63333 8.74989 4.88333 8.09989 6.36667C7.63323 7.46667 7.21656 8.63333 7.04989 9.8C6.54989 13.25 6.18323 16.7167 5.76656 20.1833C5.68323 20.8833 5.63323 21.5833 5.58323 22.1833C6.78323 20.8667 8.03323 19.5333 9.24989 18.1667C9.73323 17.6333 10.2832 17.55 10.9332 17.75C11.1166 17.8167 11.4166 17.7667 11.5832 17.65C12.6832 16.8333 13.7499 15.9667 14.8832 15.05ZM26.0499 23C25.9832 23.0333 25.9166 23.05 25.8499 23.0833C25.6832 22.9667 25.5166 22.8667 25.3499 22.75C24.5666 22.2167 23.7999 21.6333 22.9832 21.1333C21.2666 20.0833 20.5832 20.2833 19.5666 22.0167C19.2499 22.5667 18.8666 23.1 18.5332 23.6167C24.5332 25.1833 31.4832 25.1667 36.7999 23.5833C36.5332 23.3333 36.1666 23.05 35.8999 22.6833C35.6499 22.3667 35.4999 21.9667 35.3166 21.5833C34.7166 20.3833 34.1499 20.1333 32.9666 20.7667C31.8999 21.3333 30.9166 22.0333 29.8999 22.6833C29.6999 22.8167 29.4999 22.95 29.1332 23.2C29.1832 22.5333 29.2332 22.05 29.2499 21.5667C29.2499 20.7333 29.3166 19.9 29.1832 19.1C29.0499 18.3 28.3999 17.9667 27.4666 18C26.6499 18.0333 26.0832 18.4333 25.9499 19.2C25.8499 19.7833 25.8666 20.4 25.8832 21C25.8832 21.6667 25.9832 22.3333 26.0499 23Z" fill="#009EED"/>
<path d="M28.7663 41.6004C29.233 42.067 29.6163 42.5337 30.0997 42.8837C32.1663 44.3504 34.4163 44.417 36.7663 43.7504C37.2163 43.617 37.7497 43.6337 38.2163 43.7504C39.1997 44.0004 39.333 44.7004 38.583 45.3837C37.7997 46.0837 36.8497 46.4337 35.833 46.617C32.9997 47.117 30.4663 46.367 28.2497 44.5837C27.6997 44.1504 27.3163 44.1837 26.833 44.567C25.6997 45.467 24.5163 46.2337 23.0663 46.5504C21.033 47.0004 19.0663 46.667 17.2163 45.917C16.733 45.717 16.433 44.9004 16.233 44.3004C16.083 43.867 16.6163 43.767 16.9663 43.767C17.7497 43.8004 18.5497 43.9337 19.333 43.9337C20.6997 43.917 22.083 43.9337 23.4163 43.717C24.6663 43.517 25.633 42.717 26.3163 41.5337C25.2663 41.2004 24.3997 40.6004 23.7663 39.7504C23.383 39.217 23.0163 38.6337 22.7997 38.0337C22.283 36.617 22.833 35.467 24.2163 34.9004C25.583 34.3337 27.0163 34.3337 28.4497 34.4337C29.033 34.467 29.6163 34.5504 30.183 34.6337C32.0997 34.9337 32.9663 36.3504 32.3497 38.1837C31.833 39.717 30.8163 40.8337 29.283 41.417C29.133 41.4337 29.0163 41.4837 28.7663 41.6004Z" fill="#009EED"/>
</svg>
